<svg xmlns="http://www.w3.org/2000/svg" viewBox="0 0 300 400" width="300" height="400" role="img" aria-label="SANKARA, L'ÉTERNEL VEILLEUR, sculpture monumentale de Hamed Ouattara, vue de substitution à 240 degrés">
<title>SANKARA, L'ÉTERNEL VEILLEUR, sculpture monumentale de Hamed Ouattara, vue de substitution à 240 degrés</title>
<rect width="300" height="400" fill="#1a1816"/>
<polygon points="131.64,360.10 81.48,375.19 168.36,383.90 218.52,368.81" fill="#3a3732"/>
<polygon points="81.48,388.19 168.36,396.90 168.36,383.90 81.48,375.19" fill="#2b2825"/>
<polygon points="168.36,396.90 218.52,381.81 218.52,368.81 168.36,383.90" fill="#2b2825"/>
<polygon points="128.74,371.22 70.66,388.69 171.26,398.78 229.34,381.31" fill="#3a3732"/>
<polygon points="70.66,406.89 171.26,416.98 171.26,398.78 70.66,388.69" fill="#2b2825"/>
<polygon points="171.26,416.98 229.34,399.51 229.34,381.31 171.26,398.78" fill="#2b2825"/>
<polygon points="124.88,386.92 56.24,407.56 175.12,419.48 243.76,398.84" fill="#3a3732"/>
<polygon points="56.24,430.96 175.12,442.88 175.12,419.48 56.24,407.56" fill="#2b2825"/>
<polygon points="175.12,442.88 243.76,422.24 243.76,398.84 175.12,419.48" fill="#2b2825"/>
<polygon points="133.09,101.05 86.89,114.95 166.91,122.97 213.11,109.07" fill="#6f4226"/>
<polygon points="166.91,382.96 213.11,369.06 213.11,109.07 166.91,122.97" fill="#5f3620"/>
<polygon points="174.30,245.54 205.72,236.09 205.72,124.30 174.30,133.75" fill="#141311"/>
<polygon points="176.15,276.18 203.87,267.85 203.87,253.55 176.15,261.88" fill="#141311"/>
<polygon points="180.77,364.49 192.78,360.88 192.78,353.08 180.77,356.69" fill="#141311" fill-opacity="0.8"/>
<ellipse cx="173.35" cy="351.11" rx="3.00" ry="2.2" fill="#5f3620" fill-opacity="0.50"/>
<ellipse cx="172.09" cy="349.61" rx="2.58" ry="1.8" fill="#cf9166" fill-opacity="0.60"/>
<ellipse cx="173.35" cy="341.08" rx="3.00" ry="2.2" fill="#5f3620" fill-opacity="0.50"/>
<ellipse cx="172.09" cy="339.58" rx="2.58" ry="1.8" fill="#cf9166" fill-opacity="0.60"/>
<ellipse cx="173.35" cy="331.05" rx="3.00" ry="2.2" fill="#5f3620" fill-opacity="0.50"/>
<ellipse cx="172.09" cy="329.55" rx="2.58" ry="1.8" fill="#cf9166" fill-opacity="0.60"/>
<ellipse cx="173.35" cy="321.02" rx="3.00" ry="2.2" fill="#5f3620" fill-opacity="0.50"/>
<ellipse cx="172.09" cy="319.52" rx="2.58" ry="1.8" fill="#cf9166" fill-opacity="0.60"/>
<ellipse cx="173.35" cy="311.00" rx="3.00" ry="2.2" fill="#5f3620" fill-opacity="0.50"/>
<ellipse cx="172.09" cy="309.50" rx="2.58" ry="1.8" fill="#cf9166" fill-opacity="0.60"/>
<ellipse cx="173.35" cy="300.97" rx="3.00" ry="2.2" fill="#5f3620" fill-opacity="0.50"/>
<ellipse cx="172.09" cy="299.47" rx="2.58" ry="1.8" fill="#cf9166" fill-opacity="0.60"/>
<ellipse cx="173.35" cy="290.94" rx="3.00" ry="2.2" fill="#5f3620" fill-opacity="0.50"/>
<ellipse cx="172.09" cy="289.44" rx="2.58" ry="1.8" fill="#cf9166" fill-opacity="0.60"/>
<ellipse cx="184.90" cy="347.64" rx="3.00" ry="2.2" fill="#5f3620" fill-opacity="0.50"/>
<ellipse cx="183.64" cy="346.14" rx="2.58" ry="1.8" fill="#cf9166" fill-opacity="0.60"/>
<ellipse cx="184.90" cy="337.61" rx="3.00" ry="2.2" fill="#5f3620" fill-opacity="0.50"/>
<ellipse cx="183.64" cy="336.11" rx="2.58" ry="1.8" fill="#cf9166" fill-opacity="0.60"/>
<ellipse cx="184.90" cy="327.58" rx="3.00" ry="2.2" fill="#5f3620" fill-opacity="0.50"/>
<ellipse cx="183.64" cy="326.08" rx="2.58" ry="1.8" fill="#cf9166" fill-opacity="0.60"/>
<ellipse cx="184.90" cy="317.55" rx="3.00" ry="2.2" fill="#5f3620" fill-opacity="0.50"/>
<ellipse cx="183.64" cy="316.05" rx="2.58" ry="1.8" fill="#cf9166" fill-opacity="0.60"/>
<ellipse cx="184.90" cy="307.52" rx="3.00" ry="2.2" fill="#5f3620" fill-opacity="0.50"/>
<ellipse cx="183.64" cy="306.02" rx="2.58" ry="1.8" fill="#cf9166" fill-opacity="0.60"/>
<ellipse cx="184.90" cy="297.49" rx="3.00" ry="2.2" fill="#5f3620" fill-opacity="0.50"/>
<ellipse cx="183.64" cy="295.99" rx="2.58" ry="1.8" fill="#cf9166" fill-opacity="0.60"/>
<ellipse cx="184.90" cy="287.47" rx="3.00" ry="2.2" fill="#5f3620" fill-opacity="0.50"/>
<ellipse cx="183.64" cy="285.97" rx="2.58" ry="1.8" fill="#cf9166" fill-opacity="0.60"/>
<ellipse cx="196.45" cy="344.16" rx="3.00" ry="2.2" fill="#5f3620" fill-opacity="0.50"/>
<ellipse cx="195.19" cy="342.66" rx="2.58" ry="1.8" fill="#cf9166" fill-opacity="0.60"/>
<ellipse cx="196.45" cy="334.13" rx="3.00" ry="2.2" fill="#5f3620" fill-opacity="0.50"/>
<ellipse cx="195.19" cy="332.63" rx="2.58" ry="1.8" fill="#cf9166" fill-opacity="0.60"/>
<ellipse cx="196.45" cy="324.11" rx="3.00" ry="2.2" fill="#5f3620" fill-opacity="0.50"/>
<ellipse cx="195.19" cy="322.61" rx="2.58" ry="1.8" fill="#cf9166" fill-opacity="0.60"/>
<ellipse cx="196.45" cy="314.08" rx="3.00" ry="2.2" fill="#5f3620" fill-opacity="0.50"/>
<ellipse cx="195.19" cy="312.58" rx="2.58" ry="1.8" fill="#cf9166" fill-opacity="0.60"/>
<ellipse cx="196.45" cy="304.05" rx="3.00" ry="2.2" fill="#5f3620" fill-opacity="0.50"/>
<ellipse cx="195.19" cy="302.55" rx="2.58" ry="1.8" fill="#cf9166" fill-opacity="0.60"/>
<ellipse cx="196.45" cy="294.02" rx="3.00" ry="2.2" fill="#5f3620" fill-opacity="0.50"/>
<ellipse cx="195.19" cy="292.52" rx="2.58" ry="1.8" fill="#cf9166" fill-opacity="0.60"/>
<ellipse cx="196.45" cy="283.99" rx="3.00" ry="2.2" fill="#5f3620" fill-opacity="0.50"/>
<ellipse cx="195.19" cy="282.49" rx="2.58" ry="1.8" fill="#cf9166" fill-opacity="0.60"/>
<ellipse cx="208.00" cy="340.69" rx="3.00" ry="2.2" fill="#5f3620" fill-opacity="0.50"/>
<ellipse cx="206.74" cy="339.19" rx="2.58" ry="1.8" fill="#cf9166" fill-opacity="0.60"/>
<ellipse cx="208.00" cy="330.66" rx="3.00" ry="2.2" fill="#5f3620" fill-opacity="0.50"/>
<ellipse cx="206.74" cy="329.16" rx="2.58" ry="1.8" fill="#cf9166" fill-opacity="0.60"/>
<ellipse cx="208.00" cy="320.63" rx="3.00" ry="2.2" fill="#5f3620" fill-opacity="0.50"/>
<ellipse cx="206.74" cy="319.13" rx="2.58" ry="1.8" fill="#cf9166" fill-opacity="0.60"/>
<ellipse cx="208.00" cy="310.60" rx="3.00" ry="2.2" fill="#5f3620" fill-opacity="0.50"/>
<ellipse cx="206.74" cy="309.10" rx="2.58" ry="1.8" fill="#cf9166" fill-opacity="0.60"/>
<ellipse cx="208.00" cy="300.57" rx="3.00" ry="2.2" fill="#5f3620" fill-opacity="0.50"/>
<ellipse cx="206.74" cy="299.07" rx="2.58" ry="1.8" fill="#cf9166" fill-opacity="0.60"/>
<ellipse cx="208.00" cy="290.55" rx="3.00" ry="2.2" fill="#5f3620" fill-opacity="0.50"/>
<ellipse cx="206.74" cy="289.05" rx="2.58" ry="1.8" fill="#cf9166" fill-opacity="0.60"/>
<ellipse cx="208.00" cy="280.52" rx="3.00" ry="2.2" fill="#5f3620" fill-opacity="0.50"/>
<ellipse cx="206.74" cy="279.02" rx="2.58" ry="1.8" fill="#cf9166" fill-opacity="0.60"/>
<polygon points="86.89,374.94 166.91,382.96 166.91,122.97 86.89,114.95" fill="#a9643c"/>
<ellipse cx="97.55" cy="341.63" rx="3.00" ry="2.2" fill="#5f3620" fill-opacity="0.50"/>
<ellipse cx="96.29" cy="340.13" rx="2.58" ry="1.8" fill="#cf9166" fill-opacity="0.60"/>
<ellipse cx="97.55" cy="323.22" rx="3.00" ry="2.2" fill="#5f3620" fill-opacity="0.50"/>
<ellipse cx="96.29" cy="321.72" rx="2.58" ry="1.8" fill="#cf9166" fill-opacity="0.60"/>
<ellipse cx="97.55" cy="304.80" rx="3.00" ry="2.2" fill="#5f3620" fill-opacity="0.50"/>
<ellipse cx="96.29" cy="303.30" rx="2.58" ry="1.8" fill="#cf9166" fill-opacity="0.60"/>
<ellipse cx="97.55" cy="286.38" rx="3.00" ry="2.2" fill="#5f3620" fill-opacity="0.50"/>
<ellipse cx="96.29" cy="284.88" rx="2.58" ry="1.8" fill="#cf9166" fill-opacity="0.60"/>
<ellipse cx="97.55" cy="267.97" rx="3.00" ry="2.2" fill="#5f3620" fill-opacity="0.50"/>
<ellipse cx="96.29" cy="266.47" rx="2.58" ry="1.8" fill="#cf9166" fill-opacity="0.60"/>
<ellipse cx="97.55" cy="249.55" rx="3.00" ry="2.2" fill="#5f3620" fill-opacity="0.50"/>
<ellipse cx="96.29" cy="248.05" rx="2.58" ry="1.8" fill="#cf9166" fill-opacity="0.60"/>
<ellipse cx="97.55" cy="231.14" rx="3.00" ry="2.2" fill="#5f3620" fill-opacity="0.50"/>
<ellipse cx="96.29" cy="229.64" rx="2.58" ry="1.8" fill="#cf9166" fill-opacity="0.60"/>
<ellipse cx="97.55" cy="212.72" rx="3.00" ry="2.2" fill="#5f3620" fill-opacity="0.50"/>
<ellipse cx="96.29" cy="211.22" rx="2.58" ry="1.8" fill="#cf9166" fill-opacity="0.60"/>
<ellipse cx="97.55" cy="194.31" rx="3.00" ry="2.2" fill="#5f3620" fill-opacity="0.50"/>
<ellipse cx="96.29" cy="192.81" rx="2.58" ry="1.8" fill="#cf9166" fill-opacity="0.60"/>
<ellipse cx="97.55" cy="175.89" rx="3.00" ry="2.2" fill="#5f3620" fill-opacity="0.50"/>
<ellipse cx="96.29" cy="174.39" rx="2.58" ry="1.8" fill="#cf9166" fill-opacity="0.60"/>
<ellipse cx="97.55" cy="157.47" rx="3.00" ry="2.2" fill="#5f3620" fill-opacity="0.50"/>
<ellipse cx="96.29" cy="155.97" rx="2.58" ry="1.8" fill="#cf9166" fill-opacity="0.60"/>
<ellipse cx="97.55" cy="139.06" rx="3.00" ry="2.2" fill="#5f3620" fill-opacity="0.50"/>
<ellipse cx="96.29" cy="137.56" rx="2.58" ry="1.8" fill="#cf9166" fill-opacity="0.60"/>
<ellipse cx="117.56" cy="343.64" rx="3.00" ry="2.2" fill="#5f3620" fill-opacity="0.50"/>
<ellipse cx="116.30" cy="342.14" rx="2.58" ry="1.8" fill="#cf9166" fill-opacity="0.60"/>
<ellipse cx="117.56" cy="325.22" rx="3.00" ry="2.2" fill="#5f3620" fill-opacity="0.50"/>
<ellipse cx="116.30" cy="323.72" rx="2.58" ry="1.8" fill="#cf9166" fill-opacity="0.60"/>
<ellipse cx="117.56" cy="306.81" rx="3.00" ry="2.2" fill="#5f3620" fill-opacity="0.50"/>
<ellipse cx="116.30" cy="305.31" rx="2.58" ry="1.8" fill="#cf9166" fill-opacity="0.60"/>
<ellipse cx="117.56" cy="288.39" rx="3.00" ry="2.2" fill="#5f3620" fill-opacity="0.50"/>
<ellipse cx="116.30" cy="286.89" rx="2.58" ry="1.8" fill="#cf9166" fill-opacity="0.60"/>
<ellipse cx="117.56" cy="269.97" rx="3.00" ry="2.2" fill="#5f3620" fill-opacity="0.50"/>
<ellipse cx="116.30" cy="268.47" rx="2.58" ry="1.8" fill="#cf9166" fill-opacity="0.60"/>
<ellipse cx="117.56" cy="251.56" rx="3.00" ry="2.2" fill="#5f3620" fill-opacity="0.50"/>
<ellipse cx="116.30" cy="250.06" rx="2.58" ry="1.8" fill="#cf9166" fill-opacity="0.60"/>
<ellipse cx="117.56" cy="233.14" rx="3.00" ry="2.2" fill="#5f3620" fill-opacity="0.50"/>
<ellipse cx="116.30" cy="231.64" rx="2.58" ry="1.8" fill="#cf9166" fill-opacity="0.60"/>
<ellipse cx="117.56" cy="214.73" rx="3.00" ry="2.2" fill="#5f3620" fill-opacity="0.50"/>
<ellipse cx="116.30" cy="213.23" rx="2.58" ry="1.8" fill="#cf9166" fill-opacity="0.60"/>
<ellipse cx="117.56" cy="196.31" rx="3.00" ry="2.2" fill="#5f3620" fill-opacity="0.50"/>
<ellipse cx="116.30" cy="194.81" rx="2.58" ry="1.8" fill="#cf9166" fill-opacity="0.60"/>
<ellipse cx="117.56" cy="177.89" rx="3.00" ry="2.2" fill="#5f3620" fill-opacity="0.50"/>
<ellipse cx="116.30" cy="176.39" rx="2.58" ry="1.8" fill="#cf9166" fill-opacity="0.60"/>
<ellipse cx="117.56" cy="159.48" rx="3.00" ry="2.2" fill="#5f3620" fill-opacity="0.50"/>
<ellipse cx="116.30" cy="157.98" rx="2.58" ry="1.8" fill="#cf9166" fill-opacity="0.60"/>
<ellipse cx="117.56" cy="141.06" rx="3.00" ry="2.2" fill="#5f3620" fill-opacity="0.50"/>
<ellipse cx="116.30" cy="139.56" rx="2.58" ry="1.8" fill="#cf9166" fill-opacity="0.60"/>
<ellipse cx="137.56" cy="345.64" rx="3.00" ry="2.2" fill="#5f3620" fill-opacity="0.50"/>
<ellipse cx="136.30" cy="344.14" rx="2.58" ry="1.8" fill="#cf9166" fill-opacity="0.60"/>
<ellipse cx="137.56" cy="327.23" rx="3.00" ry="2.2" fill="#5f3620" fill-opacity="0.50"/>
<ellipse cx="136.30" cy="325.73" rx="2.58" ry="1.8" fill="#cf9166" fill-opacity="0.60"/>
<ellipse cx="137.56" cy="308.81" rx="3.00" ry="2.2" fill="#5f3620" fill-opacity="0.50"/>
<ellipse cx="136.30" cy="307.31" rx="2.58" ry="1.8" fill="#cf9166" fill-opacity="0.60"/>
<ellipse cx="137.56" cy="290.40" rx="3.00" ry="2.2" fill="#5f3620" fill-opacity="0.50"/>
<ellipse cx="136.30" cy="288.90" rx="2.58" ry="1.8" fill="#cf9166" fill-opacity="0.60"/>
<ellipse cx="137.56" cy="271.98" rx="3.00" ry="2.2" fill="#5f3620" fill-opacity="0.50"/>
<ellipse cx="136.30" cy="270.48" rx="2.58" ry="1.8" fill="#cf9166" fill-opacity="0.60"/>
<ellipse cx="137.56" cy="253.56" rx="3.00" ry="2.2" fill="#5f3620" fill-opacity="0.50"/>
<ellipse cx="136.30" cy="252.06" rx="2.58" ry="1.8" fill="#cf9166" fill-opacity="0.60"/>
<ellipse cx="137.56" cy="235.15" rx="3.00" ry="2.2" fill="#5f3620" fill-opacity="0.50"/>
<ellipse cx="136.30" cy="233.65" rx="2.58" ry="1.8" fill="#cf9166" fill-opacity="0.60"/>
<ellipse cx="137.56" cy="216.73" rx="3.00" ry="2.2" fill="#5f3620" fill-opacity="0.50"/>
<ellipse cx="136.30" cy="215.23" rx="2.58" ry="1.8" fill="#cf9166" fill-opacity="0.60"/>
<ellipse cx="137.56" cy="198.32" rx="3.00" ry="2.2" fill="#5f3620" fill-opacity="0.50"/>
<ellipse cx="136.30" cy="196.82" rx="2.58" ry="1.8" fill="#cf9166" fill-opacity="0.60"/>
<ellipse cx="137.56" cy="179.90" rx="3.00" ry="2.2" fill="#5f3620" fill-opacity="0.50"/>
<ellipse cx="136.30" cy="178.40" rx="2.58" ry="1.8" fill="#cf9166" fill-opacity="0.60"/>
<ellipse cx="137.56" cy="161.48" rx="3.00" ry="2.2" fill="#5f3620" fill-opacity="0.50"/>
<ellipse cx="136.30" cy="159.98" rx="2.58" ry="1.8" fill="#cf9166" fill-opacity="0.60"/>
<ellipse cx="137.56" cy="143.07" rx="3.00" ry="2.2" fill="#5f3620" fill-opacity="0.50"/>
<ellipse cx="136.30" cy="141.57" rx="2.58" ry="1.8" fill="#cf9166" fill-opacity="0.60"/>
<ellipse cx="157.57" cy="347.65" rx="3.00" ry="2.2" fill="#5f3620" fill-opacity="0.50"/>
<ellipse cx="156.31" cy="346.15" rx="2.58" ry="1.8" fill="#cf9166" fill-opacity="0.60"/>
<ellipse cx="157.57" cy="329.23" rx="3.00" ry="2.2" fill="#5f3620" fill-opacity="0.50"/>
<ellipse cx="156.31" cy="327.73" rx="2.58" ry="1.8" fill="#cf9166" fill-opacity="0.60"/>
<ellipse cx="157.57" cy="310.82" rx="3.00" ry="2.2" fill="#5f3620" fill-opacity="0.50"/>
<ellipse cx="156.31" cy="309.32" rx="2.58" ry="1.8" fill="#cf9166" fill-opacity="0.60"/>
<ellipse cx="157.57" cy="292.40" rx="3.00" ry="2.2" fill="#5f3620" fill-opacity="0.50"/>
<ellipse cx="156.31" cy="290.90" rx="2.58" ry="1.8" fill="#cf9166" fill-opacity="0.60"/>
<ellipse cx="157.57" cy="273.99" rx="3.00" ry="2.2" fill="#5f3620" fill-opacity="0.50"/>
<ellipse cx="156.31" cy="272.49" rx="2.58" ry="1.8" fill="#cf9166" fill-opacity="0.60"/>
<ellipse cx="157.57" cy="255.57" rx="3.00" ry="2.2" fill="#5f3620" fill-opacity="0.50"/>
<ellipse cx="156.31" cy="254.07" rx="2.58" ry="1.8" fill="#cf9166" fill-opacity="0.60"/>
<ellipse cx="157.57" cy="237.15" rx="3.00" ry="2.2" fill="#5f3620" fill-opacity="0.50"/>
<ellipse cx="156.31" cy="235.65" rx="2.58" ry="1.8" fill="#cf9166" fill-opacity="0.60"/>
<ellipse cx="157.57" cy="218.74" rx="3.00" ry="2.2" fill="#5f3620" fill-opacity="0.50"/>
<ellipse cx="156.31" cy="217.24" rx="2.58" ry="1.8" fill="#cf9166" fill-opacity="0.60"/>
<ellipse cx="157.57" cy="200.32" rx="3.00" ry="2.2" fill="#5f3620" fill-opacity="0.50"/>
<ellipse cx="156.31" cy="198.82" rx="2.58" ry="1.8" fill="#cf9166" fill-opacity="0.60"/>
<ellipse cx="157.57" cy="181.91" rx="3.00" ry="2.2" fill="#5f3620" fill-opacity="0.50"/>
<ellipse cx="156.31" cy="180.41" rx="2.58" ry="1.8" fill="#cf9166" fill-opacity="0.60"/>
<ellipse cx="157.57" cy="163.49" rx="3.00" ry="2.2" fill="#5f3620" fill-opacity="0.50"/>
<ellipse cx="156.31" cy="161.99" rx="2.58" ry="1.8" fill="#cf9166" fill-opacity="0.60"/>
<ellipse cx="157.57" cy="145.07" rx="3.00" ry="2.2" fill="#5f3620" fill-opacity="0.50"/>
<ellipse cx="156.31" cy="143.57" rx="2.58" ry="1.8" fill="#cf9166" fill-opacity="0.60"/>
</svg>
