<svg xmlns="http://www.w3.org/2000/svg" viewBox="0 0 300 400" width="300" height="400" role="img" aria-label="SANKARA, L'ÉTERNEL VEILLEUR, sculpture monumentale de Hamed Ouattara, vue de substitution à 270 degrés">
<title>SANKARA, L'ÉTERNEL VEILLEUR, sculpture monumentale de Hamed Ouattara, vue de substitution à 270 degrés</title>
<rect width="300" height="400" fill="#1a1816"/>
<polygon points="99.84,363.29 99.84,380.71 200.16,380.71 200.16,363.29" fill="#3a3732"/>
<polygon points="99.84,393.71 200.16,393.71 200.16,380.71 99.84,380.71" fill="#2b2825"/>
<polygon points="91.92,374.91 91.92,395.08 208.08,395.08 208.08,374.91" fill="#3a3732"/>
<polygon points="91.92,413.28 208.08,413.28 208.08,395.08 91.92,395.08" fill="#2b2825"/>
<polygon points="81.36,391.28 81.36,415.12 218.64,415.12 218.64,391.28" fill="#3a3732"/>
<polygon points="81.36,438.52 218.64,438.52 218.64,415.12 81.36,415.12" fill="#2b2825"/>
<polygon points="103.80,103.99 103.80,120.03 196.20,120.03 196.20,103.99" fill="#6f4226"/>
<polygon points="103.80,380.02 196.20,380.02 196.20,120.03 103.80,120.03" fill="#a9643c"/>
<ellipse cx="116.01" cy="345.72" rx="3.00" ry="2.2" fill="#5f3620" fill-opacity="0.50"/>
<ellipse cx="114.75" cy="344.22" rx="2.58" ry="1.8" fill="#cf9166" fill-opacity="0.60"/>
<ellipse cx="116.01" cy="327.30" rx="3.00" ry="2.2" fill="#5f3620" fill-opacity="0.50"/>
<ellipse cx="114.75" cy="325.80" rx="2.58" ry="1.8" fill="#cf9166" fill-opacity="0.60"/>
<ellipse cx="116.01" cy="308.88" rx="3.00" ry="2.2" fill="#5f3620" fill-opacity="0.50"/>
<ellipse cx="114.75" cy="307.38" rx="2.58" ry="1.8" fill="#cf9166" fill-opacity="0.60"/>
<ellipse cx="116.01" cy="290.47" rx="3.00" ry="2.2" fill="#5f3620" fill-opacity="0.50"/>
<ellipse cx="114.75" cy="288.97" rx="2.58" ry="1.8" fill="#cf9166" fill-opacity="0.60"/>
<ellipse cx="116.01" cy="272.05" rx="3.00" ry="2.2" fill="#5f3620" fill-opacity="0.50"/>
<ellipse cx="114.75" cy="270.55" rx="2.58" ry="1.8" fill="#cf9166" fill-opacity="0.60"/>
<ellipse cx="116.01" cy="253.64" rx="3.00" ry="2.2" fill="#5f3620" fill-opacity="0.50"/>
<ellipse cx="114.75" cy="252.14" rx="2.58" ry="1.8" fill="#cf9166" fill-opacity="0.60"/>
<ellipse cx="116.01" cy="235.22" rx="3.00" ry="2.2" fill="#5f3620" fill-opacity="0.50"/>
<ellipse cx="114.75" cy="233.72" rx="2.58" ry="1.8" fill="#cf9166" fill-opacity="0.60"/>
<ellipse cx="116.01" cy="216.80" rx="3.00" ry="2.2" fill="#5f3620" fill-opacity="0.50"/>
<ellipse cx="114.75" cy="215.30" rx="2.58" ry="1.8" fill="#cf9166" fill-opacity="0.60"/>
<ellipse cx="116.01" cy="198.39" rx="3.00" ry="2.2" fill="#5f3620" fill-opacity="0.50"/>
<ellipse cx="114.75" cy="196.89" rx="2.58" ry="1.8" fill="#cf9166" fill-opacity="0.60"/>
<ellipse cx="116.01" cy="179.97" rx="3.00" ry="2.2" fill="#5f3620" fill-opacity="0.50"/>
<ellipse cx="114.75" cy="178.47" rx="2.58" ry="1.8" fill="#cf9166" fill-opacity="0.60"/>
<ellipse cx="116.01" cy="161.56" rx="3.00" ry="2.2" fill="#5f3620" fill-opacity="0.50"/>
<ellipse cx="114.75" cy="160.06" rx="2.58" ry="1.8" fill="#cf9166" fill-opacity="0.60"/>
<ellipse cx="116.01" cy="143.14" rx="3.00" ry="2.2" fill="#5f3620" fill-opacity="0.50"/>
<ellipse cx="114.75" cy="141.64" rx="2.58" ry="1.8" fill="#cf9166" fill-opacity="0.60"/>
<ellipse cx="139.11" cy="345.72" rx="3.00" ry="2.2" fill="#5f3620" fill-opacity="0.50"/>
<ellipse cx="137.85" cy="344.22" rx="2.58" ry="1.8" fill="#cf9166" fill-opacity="0.60"/>
<ellipse cx="139.11" cy="327.30" rx="3.00" ry="2.2" fill="#5f3620" fill-opacity="0.50"/>
<ellipse cx="137.85" cy="325.80" rx="2.58" ry="1.8" fill="#cf9166" fill-opacity="0.60"/>
<ellipse cx="139.11" cy="308.88" rx="3.00" ry="2.2" fill="#5f3620" fill-opacity="0.50"/>
<ellipse cx="137.85" cy="307.38" rx="2.58" ry="1.8" fill="#cf9166" fill-opacity="0.60"/>
<ellipse cx="139.11" cy="290.47" rx="3.00" ry="2.2" fill="#5f3620" fill-opacity="0.50"/>
<ellipse cx="137.85" cy="288.97" rx="2.58" ry="1.8" fill="#cf9166" fill-opacity="0.60"/>
<ellipse cx="139.11" cy="272.05" rx="3.00" ry="2.2" fill="#5f3620" fill-opacity="0.50"/>
<ellipse cx="137.85" cy="270.55" rx="2.58" ry="1.8" fill="#cf9166" fill-opacity="0.60"/>
<ellipse cx="139.11" cy="253.64" rx="3.00" ry="2.2" fill="#5f3620" fill-opacity="0.50"/>
<ellipse cx="137.85" cy="252.14" rx="2.58" ry="1.8" fill="#cf9166" fill-opacity="0.60"/>
<ellipse cx="139.11" cy="235.22" rx="3.00" ry="2.2" fill="#5f3620" fill-opacity="0.50"/>
<ellipse cx="137.85" cy="233.72" rx="2.58" ry="1.8" fill="#cf9166" fill-opacity="0.60"/>
<ellipse cx="139.11" cy="216.80" rx="3.00" ry="2.2" fill="#5f3620" fill-opacity="0.50"/>
<ellipse cx="137.85" cy="215.30" rx="2.58" ry="1.8" fill="#cf9166" fill-opacity="0.60"/>
<ellipse cx="139.11" cy="198.39" rx="3.00" ry="2.2" fill="#5f3620" fill-opacity="0.50"/>
<ellipse cx="137.85" cy="196.89" rx="2.58" ry="1.8" fill="#cf9166" fill-opacity="0.60"/>
<ellipse cx="139.11" cy="179.97" rx="3.00" ry="2.2" fill="#5f3620" fill-opacity="0.50"/>
<ellipse cx="137.85" cy="178.47" rx="2.58" ry="1.8" fill="#cf9166" fill-opacity="0.60"/>
<ellipse cx="139.11" cy="161.56" rx="3.00" ry="2.2" fill="#5f3620" fill-opacity="0.50"/>
<ellipse cx="137.85" cy="160.06" rx="2.58" ry="1.8" fill="#cf9166" fill-opacity="0.60"/>
<ellipse cx="139.11" cy="143.14" rx="3.00" ry="2.2" fill="#5f3620" fill-opacity="0.50"/>
<ellipse cx="137.85" cy="141.64" rx="2.58" ry="1.8" fill="#cf9166" fill-opacity="0.60"/>
<ellipse cx="162.21" cy="345.72" rx="3.00" ry="2.2" fill="#5f3620" fill-opacity="0.50"/>
<ellipse cx="160.95" cy="344.22" rx="2.58" ry="1.8" fill="#cf9166" fill-opacity="0.60"/>
<ellipse cx="162.21" cy="327.30" rx="3.00" ry="2.2" fill="#5f3620" fill-opacity="0.50"/>
<ellipse cx="160.95" cy="325.80" rx="2.58" ry="1.8" fill="#cf9166" fill-opacity="0.60"/>
<ellipse cx="162.21" cy="308.88" rx="3.00" ry="2.2" fill="#5f3620" fill-opacity="0.50"/>
<ellipse cx="160.95" cy="307.38" rx="2.58" ry="1.8" fill="#cf9166" fill-opacity="0.60"/>
<ellipse cx="162.21" cy="290.47" rx="3.00" ry="2.2" fill="#5f3620" fill-opacity="0.50"/>
<ellipse cx="160.95" cy="288.97" rx="2.58" ry="1.8" fill="#cf9166" fill-opacity="0.60"/>
<ellipse cx="162.21" cy="272.05" rx="3.00" ry="2.2" fill="#5f3620" fill-opacity="0.50"/>
<ellipse cx="160.95" cy="270.55" rx="2.58" ry="1.8" fill="#cf9166" fill-opacity="0.60"/>
<ellipse cx="162.21" cy="253.64" rx="3.00" ry="2.2" fill="#5f3620" fill-opacity="0.50"/>
<ellipse cx="160.95" cy="252.14" rx="2.58" ry="1.8" fill="#cf9166" fill-opacity="0.60"/>
<ellipse cx="162.21" cy="235.22" rx="3.00" ry="2.2" fill="#5f3620" fill-opacity="0.50"/>
<ellipse cx="160.95" cy="233.72" rx="2.58" ry="1.8" fill="#cf9166" fill-opacity="0.60"/>
<ellipse cx="162.21" cy="216.80" rx="3.00" ry="2.2" fill="#5f3620" fill-opacity="0.50"/>
<ellipse cx="160.95" cy="215.30" rx="2.58" ry="1.8" fill="#cf9166" fill-opacity="0.60"/>
<ellipse cx="162.21" cy="198.39" rx="3.00" ry="2.2" fill="#5f3620" fill-opacity="0.50"/>
<ellipse cx="160.95" cy="196.89" rx="2.58" ry="1.8" fill="#cf9166" fill-opacity="0.60"/>
<ellipse cx="162.21" cy="179.97" rx="3.00" ry="2.2" fill="#5f3620" fill-opacity="0.50"/>
<ellipse cx="160.95" cy="178.47" rx="2.58" ry="1.8" fill="#cf9166" fill-opacity="0.60"/>
<ellipse cx="162.21" cy="161.56" rx="3.00" ry="2.2" fill="#5f3620" fill-opacity="0.50"/>
<ellipse cx="160.95" cy="160.06" rx="2.58" ry="1.8" fill="#cf9166" fill-opacity="0.60"/>
<ellipse cx="162.21" cy="143.14" rx="3.00" ry="2.2" fill="#5f3620" fill-opacity="0.50"/>
<ellipse cx="160.95" cy="141.64" rx="2.58" ry="1.8" fill="#cf9166" fill-opacity="0.60"/>
<ellipse cx="185.31" cy="345.72" rx="3.00" ry="2.2" fill="#5f3620" fill-opacity="0.50"/>
<ellipse cx="184.05" cy="344.22" rx="2.58" ry="1.8" fill="#cf9166" fill-opacity="0.60"/>
<ellipse cx="185.31" cy="327.30" rx="3.00" ry="2.2" fill="#5f3620" fill-opacity="0.50"/>
<ellipse cx="184.05" cy="325.80" rx="2.58" ry="1.8" fill="#cf9166" fill-opacity="0.60"/>
<ellipse cx="185.31" cy="308.88" rx="3.00" ry="2.2" fill="#5f3620" fill-opacity="0.50"/>
<ellipse cx="184.05" cy="307.38" rx="2.58" ry="1.8" fill="#cf9166" fill-opacity="0.60"/>
<ellipse cx="185.31" cy="290.47" rx="3.00" ry="2.2" fill="#5f3620" fill-opacity="0.50"/>
<ellipse cx="184.05" cy="288.97" rx="2.58" ry="1.8" fill="#cf9166" fill-opacity="0.60"/>
<ellipse cx="185.31" cy="272.05" rx="3.00" ry="2.2" fill="#5f3620" fill-opacity="0.50"/>
<ellipse cx="184.05" cy="270.55" rx="2.58" ry="1.8" fill="#cf9166" fill-opacity="0.60"/>
<ellipse cx="185.31" cy="253.64" rx="3.00" ry="2.2" fill="#5f3620" fill-opacity="0.50"/>
<ellipse cx="184.05" cy="252.14" rx="2.58" ry="1.8" fill="#cf9166" fill-opacity="0.60"/>
<ellipse cx="185.31" cy="235.22" rx="3.00" ry="2.2" fill="#5f3620" fill-opacity="0.50"/>
<ellipse cx="184.05" cy="233.72" rx="2.58" ry="1.8" fill="#cf9166" fill-opacity="0.60"/>
<ellipse cx="185.31" cy="216.80" rx="3.00" ry="2.2" fill="#5f3620" fill-opacity="0.50"/>
<ellipse cx="184.05" cy="215.30" rx="2.58" ry="1.8" fill="#cf9166" fill-opacity="0.60"/>
<ellipse cx="185.31" cy="198.39" rx="3.00" ry="2.2" fill="#5f3620" fill-opacity="0.50"/>
<ellipse cx="184.05" cy="196.89" rx="2.58" ry="1.8" fill="#cf9166" fill-opacity="0.60"/>
<ellipse cx="185.31" cy="179.97" rx="3.00" ry="2.2" fill="#5f3620" fill-opacity="0.50"/>
<ellipse cx="184.05" cy="178.47" rx="2.58" ry="1.8" fill="#cf9166" fill-opacity="0.60"/>
<ellipse cx="185.31" cy="161.56" rx="3.00" ry="2.2" fill="#5f3620" fill-opacity="0.50"/>
<ellipse cx="184.05" cy="160.06" rx="2.58" ry="1.8" fill="#cf9166" fill-opacity="0.60"/>
<ellipse cx="185.31" cy="143.14" rx="3.00" ry="2.2" fill="#5f3620" fill-opacity="0.50"/>
<ellipse cx="184.05" cy="141.64" rx="2.58" ry="1.8" fill="#cf9166" fill-opacity="0.60"/>
</svg>
